<?xml version="1.0" encoding="us-ascii" standalone="no"?><svg xmlns="http://www.w3.org/2000/svg" xmlns:xlink="http://www.w3.org/1999/xlink" contentStyleType="text/css" height="565px" preserveAspectRatio="none" style="width:1054px;height:565px;background:#FFFFFF;" version="1.1" viewBox="0 0 1054 565" width="1054px" zoomAndPan="magnify"><defs/><g><rect fill="none" height="64.582" style="stroke:#000000;stroke-width:1.5;" width="550" x="498" y="358.3672"/><line style="stroke:#181818;stroke-width:0.5;stroke-dasharray:5.0,5.0;" x1="27" x2="27" y1="83.6211" y2="229.4941"/><line style="stroke:#A80036;stroke-width:1.0;stroke-dasharray:1.0,4.0;" x1="27" x2="27" y1="229.4941" y2="257.4941"/><line style="stroke:#181818;stroke-width:0.5;stroke-dasharray:5.0,5.0;" x1="27" x2="27" y1="257.4941" y2="481.9492"/><line style="stroke:#181818;stroke-width:0.5;stroke-dasharray:5.0,5.0;" x1="288.5" x2="288.5" y1="83.6211" y2="229.4941"/><line style="stroke:#A80036;stroke-width:1.0;stroke-dasharray:1.0,4.0;" x1="288.5" x2="288.5" y1="229.4941" y2="257.4941"/><line style="stroke:#181818;stroke-width:0.5;stroke-dasharray:5.0,5.0;" x1="288.5" x2="288.5" y1="257.4941" y2="481.9492"/><line style="stroke:#181818;stroke-width:0.5;stroke-dasharray:5.0,5.0;" x1="382.5" x2="382.5" y1="83.6211" y2="229.4941"/><line style="stroke:#A80036;stroke-width:1.0;stroke-dasharray:1.0,4.0;" x1="382.5" x2="382.5" y1="229.4941" y2="257.4941"/><line style="stroke:#181818;stroke-width:0.5;stroke-dasharray:5.0,5.0;" x1="382.5" x2="382.5" y1="257.4941" y2="481.9492"/><line style="stroke:#181818;stroke-width:0.5;stroke-dasharray:5.0,5.0;" x1="572" x2="572" y1="83.6211" y2="229.4941"/><line style="stroke:#A80036;stroke-width:1.0;stroke-dasharray:1.0,4.0;" x1="572" x2="572" y1="229.4941" y2="257.4941"/><line style="stroke:#181818;stroke-width:0.5;stroke-dasharray:5.0,5.0;" x1="572" x2="572" y1="257.4941" y2="481.9492"/><line style="stroke:#181818;stroke-width:0.5;stroke-dasharray:5.0,5.0;" x1="697" x2="697" y1="83.6211" y2="229.4941"/><line style="stroke:#A80036;stroke-width:1.0;stroke-dasharray:1.0,4.0;" x1="697" x2="697" y1="229.4941" y2="257.4941"/><line style="stroke:#181818;stroke-width:0.5;stroke-dasharray:5.0,5.0;" x1="697" x2="697" y1="257.4941" y2="481.9492"/><line style="stroke:#181818;stroke-width:0.5;stroke-dasharray:5.0,5.0;" x1="904" x2="904" y1="83.6211" y2="229.4941"/><line style="stroke:#A80036;stroke-width:1.0;stroke-dasharray:1.0,4.0;" x1="904" x2="904" y1="229.4941" y2="257.4941"/><line style="stroke:#181818;stroke-width:0.5;stroke-dasharray:5.0,5.0;" x1="904" x2="904" y1="257.4941" y2="481.9492"/><line style="stroke:#181818;stroke-width:0.5;stroke-dasharray:5.0,5.0;" x1="1010" x2="1010" y1="83.6211" y2="229.4941"/><line style="stroke:#A80036;stroke-width:1.0;stroke-dasharray:1.0,4.0;" x1="1010" x2="1010" y1="229.4941" y2="257.4941"/><line style="stroke:#181818;stroke-width:0.5;stroke-dasharray:5.0,5.0;" x1="1010" x2="1010" y1="257.4941" y2="481.9492"/><text fill="#000000" font-family="sans-serif" font-size="14" lengthAdjust="spacing" textLength="38" x="5" y="80.1074">Game</text><ellipse cx="27" cy="13.5" fill="#E2E2F0" rx="8" ry="8" style="stroke:#181818;stroke-width:0.5;"/><path d="M27,21.5 L27,48.5 M14,29.5 L40,29.5 M27,48.5 L14,63.5 M27,48.5 L40,63.5 " fill="none" style="stroke:#181818;stroke-width:0.5;"/><text fill="#000000" font-family="sans-serif" font-size="14" lengthAdjust="spacing" textLength="38" x="5" y="496.0566">Game</text><ellipse cx="27" cy="508.0703" fill="#E2E2F0" rx="8" ry="8" style="stroke:#181818;stroke-width:0.5;"/><path d="M27,516.0703 L27,543.0703 M14,524.0703 L40,524.0703 M27,543.0703 L14,558.0703 M27,543.0703 L40,558.0703 " fill="none" style="stroke:#181818;stroke-width:0.5;"/><rect fill="#E2E2F0" height="32.6211" rx="2.5" ry="2.5" style="stroke:#181818;stroke-width:0.5;" width="85" x="246.5" y="50"/><text fill="#000000" font-family="sans-serif" font-size="14" lengthAdjust="spacing" textLength="71" x="253.5" y="72.1074">SubModule</text><rect fill="#E2E2F0" height="32.6211" rx="2.5" ry="2.5" style="stroke:#181818;stroke-width:0.5;" width="85" x="246.5" y="480.9492"/><text fill="#000000" font-family="sans-serif" font-size="14" lengthAdjust="spacing" textLength="71" x="253.5" y="503.0566">SubModule</text><rect fill="#E2E2F0" height="32.6211" rx="2.5" ry="2.5" style="stroke:#181818;stroke-width:0.5;" width="82" x="341.5" y="50"/><text fill="#000000" font-family="sans-serif" font-size="14" lengthAdjust="spacing" textLength="68" x="348.5" y="72.1074">UIExtender</text><rect fill="#E2E2F0" height="32.6211" rx="2.5" ry="2.5" style="stroke:#181818;stroke-width:0.5;" width="82" x="341.5" y="480.9492"/><text fill="#000000" font-family="sans-serif" font-size="14" lengthAdjust="spacing" textLength="68" x="348.5" y="503.0566">UIExtender</text><rect fill="#E2E2F0" height="32.6211" rx="2.5" ry="2.5" style="stroke:#181818;stroke-width:0.5;" width="129" x="508" y="50"/><text fill="#000000" font-family="sans-serif" font-size="14" lengthAdjust="spacing" textLength="115" x="515" y="72.1074">PrefabComponent</text><rect fill="#E2E2F0" height="32.6211" rx="2.5" ry="2.5" style="stroke:#181818;stroke-width:0.5;" width="129" x="508" y="480.9492"/><text fill="#000000" font-family="sans-serif" font-size="14" lengthAdjust="spacing" textLength="115" x="515" y="503.0566">PrefabComponent</text><rect fill="#E2E2F0" height="32.6211" rx="2.5" ry="2.5" style="stroke:#181818;stroke-width:0.5;" width="100" x="647" y="50"/><text fill="#000000" font-family="sans-serif" font-size="14" lengthAdjust="spacing" textLength="86" x="654" y="72.1074">WidgetPrefab</text><rect fill="#E2E2F0" height="32.6211" rx="2.5" ry="2.5" style="stroke:#181818;stroke-width:0.5;" width="100" x="647" y="480.9492"/><text fill="#000000" font-family="sans-serif" font-size="14" lengthAdjust="spacing" textLength="86" x="654" y="503.0566">WidgetPrefab</text><rect fill="#E2E2F0" height="32.6211" rx="2.5" ry="2.5" style="stroke:#181818;stroke-width:0.5;" width="136" x="836" y="50"/><text fill="#000000" font-family="sans-serif" font-size="14" lengthAdjust="spacing" textLength="122" x="843" y="72.1074">WidgetPrefabPatch</text><rect fill="#E2E2F0" height="32.6211" rx="2.5" ry="2.5" style="stroke:#181818;stroke-width:0.5;" width="136" x="836" y="480.9492"/><text fill="#000000" font-family="sans-serif" font-size="14" lengthAdjust="spacing" textLength="122" x="843" y="503.0566">WidgetPrefabPatch</text><rect fill="#E2E2F0" height="32.6211" rx="2.5" ry="2.5" style="stroke:#181818;stroke-width:0.5;" width="56" x="982" y="50"/><text fill="#000000" font-family="sans-serif" font-size="14" lengthAdjust="spacing" textLength="42" x="989" y="72.1074">Prefab</text><rect fill="#E2E2F0" height="32.6211" rx="2.5" ry="2.5" style="stroke:#181818;stroke-width:0.5;" width="56" x="982" y="480.9492"/><text fill="#000000" font-family="sans-serif" font-size="14" lengthAdjust="spacing" textLength="42" x="989" y="503.0566">Prefab</text><polygon fill="#181818" points="277,112.9121,287,116.9121,277,120.9121,281,116.9121" style="stroke:#181818;stroke-width:1.0;"/><line style="stroke:#181818;stroke-width:1.0;" x1="27" x2="283" y1="116.9121" y2="116.9121"/><text fill="#000000" font-family="sans-serif" font-size="13" lengthAdjust="spacing" textLength="238" x="34" y="111.6494">OnBeforeInitialModuleScreenSetAsRoot()</text><polygon fill="#181818" points="370.5,144.2031,380.5,148.2031,370.5,152.2031,374.5,148.2031" style="stroke:#181818;stroke-width:1.0;"/><line style="stroke:#181818;stroke-width:1.0;" x1="289" x2="376.5" y1="148.2031" y2="148.2031"/><text fill="#000000" font-family="sans-serif" font-size="13" lengthAdjust="spacing" textLength="56" x="296" y="142.9404">Register()</text><polygon fill="#181818" points="560.5,175.4941,570.5,179.4941,560.5,183.4941,564.5,179.4941" style="stroke:#181818;stroke-width:1.0;"/><line style="stroke:#181818;stroke-width:1.0;" x1="382.5" x2="566.5" y1="179.4941" y2="179.4941"/><text fill="#000000" font-family="sans-serif" font-size="13" lengthAdjust="spacing" textLength="166" x="389.5" y="174.2314">Register(Type[] prefabTypes)</text><polygon fill="#181818" points="393.5,189.4941,383.5,193.4941,393.5,197.4941,389.5,193.4941" style="stroke:#181818;stroke-width:1.0;"/><line style="stroke:#181818;stroke-width:1.0;stroke-dasharray:2.0,2.0;" x1="387.5" x2="571.5" y1="193.4941" y2="193.4941"/><polygon fill="#181818" points="300,203.4941,290,207.4941,300,211.4941,296,207.4941" style="stroke:#181818;stroke-width:1.0;"/><line style="stroke:#181818;stroke-width:1.0;stroke-dasharray:2.0,2.0;" x1="294" x2="381.5" y1="207.4941" y2="207.4941"/><polygon fill="#181818" points="38,217.4941,28,221.4941,38,225.4941,34,221.4941" style="stroke:#181818;stroke-width:1.0;"/><line style="stroke:#181818;stroke-width:1.0;stroke-dasharray:2.0,2.0;" x1="32" x2="288" y1="221.4941" y2="221.4941"/><polygon fill="#181818" points="685,276.7852,695,280.7852,685,284.7852,689,280.7852" style="stroke:#181818;stroke-width:1.0;"/><line style="stroke:#181818;stroke-width:1.0;" x1="27" x2="691" y1="280.7852" y2="280.7852"/><text fill="#000000" font-family="sans-serif" font-size="13" lengthAdjust="spacing" textLength="66" x="34" y="275.5225">LoadFrom()</text><polygon fill="#181818" points="892,308.0762,902,312.0762,892,316.0762,896,312.0762" style="stroke:#181818;stroke-width:1.0;"/><line style="stroke:#181818;stroke-width:1.0;" x1="697" x2="898" y1="312.0762" y2="312.0762"/><text fill="#000000" font-family="sans-serif" font-size="13" lengthAdjust="spacing" textLength="183" x="704" y="306.8135">Harmony intercepts LoadFrom()</text><polygon fill="#181818" points="583.5,339.3672,573.5,343.3672,583.5,347.3672,579.5,343.3672" style="stroke:#181818;stroke-width:1.0;"/><line style="stroke:#181818;stroke-width:1.0;" x1="577.5" x2="903" y1="343.3672" y2="343.3672"/><text fill="#000000" font-family="sans-serif" font-size="13" lengthAdjust="spacing" textLength="139" x="589.5" y="338.1045">ProcessMovieIfNeeded()</text><path d="M498,358.3672 L571,358.3672 L571,367.6582 L561,377.6582 L498,377.6582 L498,358.3672 " fill="#EEEEEE" style="stroke:#000000;stroke-width:1.5;"/><rect fill="none" height="64.582" style="stroke:#000000;stroke-width:1.5;" width="550" x="498" y="358.3672"/><text fill="#000000" font-family="sans-serif" font-size="13" font-weight="bold" lengthAdjust="spacing" textLength="28" x="513" y="373.3955">loop</text><text fill="#000000" font-family="sans-serif" font-size="11" font-weight="bold" lengthAdjust="spacing" textLength="123" x="586" y="372.2373">[All registered Prefab]</text><polygon fill="#181818" points="998,396.9492,1008,400.9492,998,404.9492,1002,400.9492" style="stroke:#181818;stroke-width:1.0;"/><line style="stroke:#181818;stroke-width:1.0;" x1="572.5" x2="1004" y1="400.9492" y2="400.9492"/><text fill="#000000" font-family="sans-serif" font-size="13" lengthAdjust="spacing" textLength="148" x="579.5" y="395.6865">Apply XML transformation</text><polygon fill="#181818" points="583.5,410.9492,573.5,414.9492,583.5,418.9492,579.5,414.9492" style="stroke:#181818;stroke-width:1.0;"/><line style="stroke:#181818;stroke-width:1.0;stroke-dasharray:2.0,2.0;" x1="577.5" x2="1009" y1="414.9492" y2="414.9492"/><polygon fill="#181818" points="892,431.9492,902,435.9492,892,439.9492,896,435.9492" style="stroke:#181818;stroke-width:1.0;"/><line style="stroke:#181818;stroke-width:1.0;stroke-dasharray:2.0,2.0;" x1="572.5" x2="898" y1="435.9492" y2="435.9492"/><polygon fill="#181818" points="708,445.9492,698,449.9492,708,453.9492,704,449.9492" style="stroke:#181818;stroke-width:1.0;"/><line style="stroke:#181818;stroke-width:1.0;stroke-dasharray:2.0,2.0;" x1="702" x2="903" y1="449.9492" y2="449.9492"/><polygon fill="#181818" points="38,459.9492,28,463.9492,38,467.9492,34,463.9492" style="stroke:#181818;stroke-width:1.0;"/><line style="stroke:#181818;stroke-width:1.0;stroke-dasharray:2.0,2.0;" x1="32" x2="696" y1="463.9492" y2="463.9492"/><!--SRC=[TL7BJiCm4BpxA_P83yq7v80K48z83KGD22J4mOqtnPBZjUmj8d-FaxGqJOiFbhoU6S-CPStauK6sA4I_m_8Qgjsc8BKpcCAplS66FEPMivPc75UrHxGLSXRMH7or47-CdlwQt_qmMeK-XJLkTM3q4NCSzw3IOoCtjzGwicXvWdpf77vyWXi0_I4in0mDovDdJgId_gU-udnCcIJ9CUgRLblaKJw55KbrxwcDRgSNSs0fkVvAuL7wbcm7saRRDJeE_maCX8kfIqyrXb3GjyQyUK9Kg2BP43d8Z06_RmNLdYiWhhCw3iefPCwP3jwB5R2NDiI_QoLhiXFUqCLCGiJsBhPy5kDIi1bkLjwX-Ly0]--></g></svg>