<?xml version="1.0" encoding="us-ascii" standalone="no"?><svg xmlns="http://www.w3.org/2000/svg" xmlns:xlink="http://www.w3.org/1999/xlink" contentStyleType="text/css" height="814px" preserveAspectRatio="none" style="width:1275px;height:814px;background:#FFFFFF;" version="1.1" viewBox="0 0 1275 814" width="1275px" zoomAndPan="magnify"><defs/><g><rect fill="none" height="307.668" style="stroke:#000000;stroke-width:1.5;" width="741.5" x="527.5" y="283.0762"/><rect fill="none" height="274.377" style="stroke:#000000;stroke-width:1.5;" width="721.5" x="537.5" y="309.3672"/><line style="stroke:#181818;stroke-width:0.5;stroke-dasharray:5.0,5.0;" x1="27" x2="27" y1="83.6211" y2="731.3262"/><line style="stroke:#181818;stroke-width:0.5;stroke-dasharray:5.0,5.0;" x1="288.5" x2="288.5" y1="83.6211" y2="731.3262"/><line style="stroke:#181818;stroke-width:0.5;stroke-dasharray:5.0,5.0;" x1="382.5" x2="382.5" y1="83.6211" y2="731.3262"/><line style="stroke:#181818;stroke-width:0.5;stroke-dasharray:5.0,5.0;" x1="614.5" x2="614.5" y1="83.6211" y2="731.3262"/><line style="stroke:#181818;stroke-width:0.5;stroke-dasharray:5.0,5.0;" x1="821" x2="821" y1="83.6211" y2="731.3262"/><line style="stroke:#181818;stroke-width:0.5;stroke-dasharray:5.0,5.0;" x1="971" x2="971" y1="83.6211" y2="731.3262"/><line style="stroke:#181818;stroke-width:0.5;stroke-dasharray:5.0,5.0;" x1="1129" x2="1129" y1="83.6211" y2="731.3262"/><text fill="#000000" font-family="sans-serif" font-size="14" lengthAdjust="spacing" textLength="38" x="5" y="80.1074">Game</text><ellipse cx="27" cy="13.5" fill="#E2E2F0" rx="8" ry="8" style="stroke:#181818;stroke-width:0.5;"/><path d="M27,21.5 L27,48.5 M14,29.5 L40,29.5 M27,48.5 L14,63.5 M27,48.5 L40,63.5 " fill="none" style="stroke:#181818;stroke-width:0.5;"/><text fill="#000000" font-family="sans-serif" font-size="14" lengthAdjust="spacing" textLength="38" x="5" y="745.4336">Game</text><ellipse cx="27" cy="757.4473" fill="#E2E2F0" rx="8" ry="8" style="stroke:#181818;stroke-width:0.5;"/><path d="M27,765.4473 L27,792.4473 M14,773.4473 L40,773.4473 M27,792.4473 L14,807.4473 M27,792.4473 L40,807.4473 " fill="none" style="stroke:#181818;stroke-width:0.5;"/><rect fill="#E2E2F0" height="32.6211" rx="2.5" ry="2.5" style="stroke:#181818;stroke-width:0.5;" width="85" x="246.5" y="50"/><text fill="#000000" font-family="sans-serif" font-size="14" lengthAdjust="spacing" textLength="71" x="253.5" y="72.1074">SubModule</text><rect fill="#E2E2F0" height="32.6211" rx="2.5" ry="2.5" style="stroke:#181818;stroke-width:0.5;" width="85" x="246.5" y="730.3262"/><text fill="#000000" font-family="sans-serif" font-size="14" lengthAdjust="spacing" textLength="71" x="253.5" y="752.4336">SubModule</text><rect fill="#E2E2F0" height="32.6211" rx="2.5" ry="2.5" style="stroke:#181818;stroke-width:0.5;" width="82" x="341.5" y="50"/><text fill="#000000" font-family="sans-serif" font-size="14" lengthAdjust="spacing" textLength="68" x="348.5" y="72.1074">UIExtender</text><rect fill="#E2E2F0" height="32.6211" rx="2.5" ry="2.5" style="stroke:#181818;stroke-width:0.5;" width="82" x="341.5" y="730.3262"/><text fill="#000000" font-family="sans-serif" font-size="14" lengthAdjust="spacing" textLength="68" x="348.5" y="752.4336">UIExtender</text><rect fill="#E2E2F0" height="32.6211" rx="2.5" ry="2.5" style="stroke:#181818;stroke-width:0.5;" width="134" x="547.5" y="50"/><text fill="#000000" font-family="sans-serif" font-size="14" lengthAdjust="spacing" textLength="120" x="554.5" y="72.1074">UIExtenderRuntime</text><rect fill="#E2E2F0" height="32.6211" rx="2.5" ry="2.5" style="stroke:#181818;stroke-width:0.5;" width="134" x="547.5" y="730.3262"/><text fill="#000000" font-family="sans-serif" font-size="14" lengthAdjust="spacing" textLength="120" x="554.5" y="752.4336">UIExtenderRuntime</text><rect fill="#E2E2F0" height="32.6211" rx="2.5" ry="2.5" style="stroke:#181818;stroke-width:0.5;" width="129" x="757" y="50"/><text fill="#000000" font-family="sans-serif" font-size="14" lengthAdjust="spacing" textLength="115" x="764" y="72.1074">PrefabComponent</text><rect fill="#E2E2F0" height="32.6211" rx="2.5" ry="2.5" style="stroke:#181818;stroke-width:0.5;" width="129" x="757" y="730.3262"/><text fill="#000000" font-family="sans-serif" font-size="14" lengthAdjust="spacing" textLength="115" x="764" y="752.4336">PrefabComponent</text><rect fill="#E2E2F0" height="32.6211" rx="2.5" ry="2.5" style="stroke:#181818;stroke-width:0.5;" width="141" x="901" y="50"/><text fill="#000000" font-family="sans-serif" font-size="14" lengthAdjust="spacing" textLength="127" x="908" y="72.1074">GauntletMoviePatch</text><rect fill="#E2E2F0" height="32.6211" rx="2.5" ry="2.5" style="stroke:#181818;stroke-width:0.5;" width="141" x="901" y="730.3262"/><text fill="#000000" font-family="sans-serif" font-size="14" lengthAdjust="spacing" textLength="127" x="908" y="752.4336">GauntletMoviePatch</text><rect fill="#E2E2F0" height="32.6211" rx="2.5" ry="2.5" style="stroke:#181818;stroke-width:0.5;" width="154" x="1052" y="50"/><text fill="#000000" font-family="sans-serif" font-size="14" lengthAdjust="spacing" textLength="140" x="1059" y="72.1074">ViewModelComponent</text><rect fill="#E2E2F0" height="32.6211" rx="2.5" ry="2.5" style="stroke:#181818;stroke-width:0.5;" width="154" x="1052" y="730.3262"/><text fill="#000000" font-family="sans-serif" font-size="14" lengthAdjust="spacing" textLength="140" x="1059" y="752.4336">ViewModelComponent</text><polygon fill="#181818" points="277,112.9121,287,116.9121,277,120.9121,281,116.9121" style="stroke:#181818;stroke-width:1.0;"/><line style="stroke:#181818;stroke-width:1.0;" x1="27" x2="283" y1="116.9121" y2="116.9121"/><text fill="#000000" font-family="sans-serif" font-size="13" lengthAdjust="spacing" textLength="238" x="34" y="111.6494">OnBeforeInitialModuleScreenSetAsRoot()</text><polygon fill="#181818" points="370.5,144.2031,380.5,148.2031,370.5,152.2031,374.5,148.2031" style="stroke:#181818;stroke-width:1.0;"/><line style="stroke:#181818;stroke-width:1.0;" x1="289" x2="376.5" y1="148.2031" y2="148.2031"/><text fill="#000000" font-family="sans-serif" font-size="13" lengthAdjust="spacing" textLength="56" x="296" y="142.9404">Register()</text><line style="stroke:#181818;stroke-width:1.0;" x1="382.5" x2="424.5" y1="179.4941" y2="179.4941"/><line style="stroke:#181818;stroke-width:1.0;" x1="424.5" x2="424.5" y1="179.4941" y2="192.4941"/><line style="stroke:#181818;stroke-width:1.0;" x1="383.5" x2="424.5" y1="192.4941" y2="192.4941"/><polygon fill="#181818" points="393.5,188.4941,383.5,192.4941,393.5,196.4941,389.5,192.4941" style="stroke:#181818;stroke-width:1.0;"/><text fill="#000000" font-family="sans-serif" font-size="13" lengthAdjust="spacing" textLength="119" x="389.5" y="174.2314">Find attributed types</text><line style="stroke:#181818;stroke-width:1.0;" x1="382.5" x2="424.5" y1="223.7852" y2="223.7852"/><line style="stroke:#181818;stroke-width:1.0;" x1="424.5" x2="424.5" y1="223.7852" y2="236.7852"/><line style="stroke:#181818;stroke-width:1.0;" x1="383.5" x2="424.5" y1="236.7852" y2="236.7852"/><polygon fill="#181818" points="393.5,232.7852,383.5,236.7852,393.5,240.7852,389.5,236.7852" style="stroke:#181818;stroke-width:1.0;"/><text fill="#000000" font-family="sans-serif" font-size="13" lengthAdjust="spacing" textLength="218" x="389.5" y="218.5225">Create runtime for module and store it</text><polygon fill="#181818" points="602.5,264.0762,612.5,268.0762,602.5,272.0762,606.5,268.0762" style="stroke:#181818;stroke-width:1.0;"/><line style="stroke:#181818;stroke-width:1.0;" x1="382.5" x2="608.5" y1="268.0762" y2="268.0762"/><text fill="#000000" font-family="sans-serif" font-size="13" lengthAdjust="spacing" textLength="56" x="389.5" y="262.8135">Register()</text><path d="M527.5,283.0762 L600.5,283.0762 L600.5,292.3672 L590.5,302.3672 L527.5,302.3672 L527.5,283.0762 " fill="#EEEEEE" style="stroke:#000000;stroke-width:1.5;"/><rect fill="none" height="307.668" style="stroke:#000000;stroke-width:1.5;" width="741.5" x="527.5" y="283.0762"/><text fill="#000000" font-family="sans-serif" font-size="13" font-weight="bold" lengthAdjust="spacing" textLength="28" x="542.5" y="298.1045">loop</text><text fill="#000000" font-family="sans-serif" font-size="11" font-weight="bold" lengthAdjust="spacing" textLength="80" x="615.5" y="296.9463">[for each type]</text><path d="M537.5,309.3672 L598.5,309.3672 L598.5,318.6582 L588.5,328.6582 L537.5,328.6582 L537.5,309.3672 " fill="#EEEEEE" style="stroke:#000000;stroke-width:1.5;"/><rect fill="none" height="274.377" style="stroke:#000000;stroke-width:1.5;" width="721.5" x="537.5" y="309.3672"/><text fill="#000000" font-family="sans-serif" font-size="13" font-weight="bold" lengthAdjust="spacing" textLength="16" x="552.5" y="324.3955">alt</text><text fill="#000000" font-family="sans-serif" font-size="11" font-weight="bold" lengthAdjust="spacing" textLength="102" x="613.5" y="323.2373">[prefab extension]</text><polygon fill="#181818" points="809.5,347.9492,819.5,351.9492,809.5,355.9492,813.5,351.9492" style="stroke:#181818;stroke-width:1.0;"/><line style="stroke:#181818;stroke-width:1.0;" x1="614.5" x2="815.5" y1="351.9492" y2="351.9492"/><text fill="#000000" font-family="sans-serif" font-size="13" lengthAdjust="spacing" textLength="90" x="621.5" y="346.6865">RegisterPatch()</text><polygon fill="#181818" points="625.5,361.9492,615.5,365.9492,625.5,369.9492,621.5,365.9492" style="stroke:#181818;stroke-width:1.0;"/><line style="stroke:#181818;stroke-width:1.0;stroke-dasharray:2.0,2.0;" x1="619.5" x2="820.5" y1="365.9492" y2="365.9492"/><line style="stroke:#181818;stroke-width:1.0;" x1="821.5" x2="863.5" y1="397.2402" y2="397.2402"/><line style="stroke:#181818;stroke-width:1.0;" x1="863.5" x2="863.5" y1="397.2402" y2="410.2402"/><line style="stroke:#181818;stroke-width:1.0;" x1="822.5" x2="863.5" y1="410.2402" y2="410.2402"/><polygon fill="#181818" points="832.5,406.2402,822.5,410.2402,832.5,414.2402,828.5,410.2402" style="stroke:#181818;stroke-width:1.0;"/><text fill="#000000" font-family="sans-serif" font-size="13" lengthAdjust="spacing" textLength="136" x="828.5" y="391.9775">store extension for later</text><polygon fill="#181818" points="625.5,420.2402,615.5,424.2402,625.5,428.2402,621.5,424.2402" style="stroke:#181818;stroke-width:1.0;"/><line style="stroke:#181818;stroke-width:1.0;stroke-dasharray:2.0,2.0;" x1="619.5" x2="820.5" y1="424.2402" y2="424.2402"/><polygon fill="#181818" points="959.5,451.5313,969.5,455.5313,959.5,459.5313,963.5,455.5313" style="stroke:#181818;stroke-width:1.0;"/><line style="stroke:#181818;stroke-width:1.0;" x1="614.5" x2="965.5" y1="455.5313" y2="455.5313"/><text fill="#000000" font-family="sans-serif" font-size="13" lengthAdjust="spacing" textLength="141" x="621.5" y="450.2686">Register(AutoGenName)</text><polygon fill="#181818" points="625.5,465.5313,615.5,469.5313,625.5,473.5313,621.5,469.5313" style="stroke:#181818;stroke-width:1.0;"/><line style="stroke:#181818;stroke-width:1.0;stroke-dasharray:2.0,2.0;" x1="619.5" x2="970.5" y1="469.5313" y2="469.5313"/><line style="stroke:#000000;stroke-width:1.0;stroke-dasharray:2.0,2.0;" x1="537.5" x2="1259" y1="478.5313" y2="478.5313"/><text fill="#000000" font-family="sans-serif" font-size="11" font-weight="bold" lengthAdjust="spacing" textLength="140" x="542.5" y="490.4014">[if view model extension]</text><polygon fill="#181818" points="1117,513.4531,1127,517.4531,1117,521.4531,1121,517.4531" style="stroke:#181818;stroke-width:1.0;"/><line style="stroke:#181818;stroke-width:1.0;" x1="614.5" x2="1123" y1="517.4531" y2="517.4531"/><text fill="#000000" font-family="sans-serif" font-size="13" lengthAdjust="spacing" textLength="150" x="621.5" y="512.1904">RegisterViewModelMixin()</text><line style="stroke:#181818;stroke-width:1.0;" x1="1129" x2="1171" y1="548.7441" y2="548.7441"/><line style="stroke:#181818;stroke-width:1.0;" x1="1171" x2="1171" y1="548.7441" y2="561.7441"/><line style="stroke:#181818;stroke-width:1.0;" x1="1130" x2="1171" y1="561.7441" y2="561.7441"/><polygon fill="#181818" points="1140,557.7441,1130,561.7441,1140,565.7441,1136,561.7441" style="stroke:#181818;stroke-width:1.0;"/><text fill="#000000" font-family="sans-serif" font-size="13" lengthAdjust="spacing" textLength="111" x="1136" y="543.4814">store mixin for later</text><polygon fill="#181818" points="625.5,571.7441,615.5,575.7441,625.5,579.7441,621.5,575.7441" style="stroke:#181818;stroke-width:1.0;"/><line style="stroke:#181818;stroke-width:1.0;stroke-dasharray:2.0,2.0;" x1="619.5" x2="1128" y1="575.7441" y2="575.7441"/><line style="stroke:#181818;stroke-width:1.0;" x1="614.5" x2="656.5" y1="621.0352" y2="621.0352"/><line style="stroke:#181818;stroke-width:1.0;" x1="656.5" x2="656.5" y1="621.0352" y2="634.0352"/><line style="stroke:#181818;stroke-width:1.0;" x1="615.5" x2="656.5" y1="634.0352" y2="634.0352"/><polygon fill="#181818" points="625.5,630.0352,615.5,634.0352,625.5,638.0352,621.5,634.0352" style="stroke:#181818;stroke-width:1.0;"/><text fill="#000000" font-family="sans-serif" font-size="13" font-weight="bold" lengthAdjust="spacing" textLength="56" x="621.5" y="615.7725">Patching</text><text fill="#000000" font-family="sans-serif" font-size="13" lengthAdjust="spacing" textLength="133" x="681.5" y="615.7725">(see separate diagram)</text><path d="M436,647.0352 L436,674.0352 L792,674.0352 L792,657.0352 L782,647.0352 L436,647.0352 " fill="#FEFFDD" style="stroke:#181818;stroke-width:0.5;"/><path d="M782,647.0352 L782,657.0352 L792,657.0352 L782,647.0352 " fill="#FEFFDD" style="stroke:#181818;stroke-width:0.5;"/><text fill="#000000" font-family="sans-serif" font-size="13" lengthAdjust="spacing" textLength="335" x="442" y="666.0635">See `ViewModelPatching` and `PrefabPatching` diagrams.</text><polygon fill="#181818" points="393.5,681.3262,383.5,685.3262,393.5,689.3262,389.5,685.3262" style="stroke:#181818;stroke-width:1.0;"/><line style="stroke:#181818;stroke-width:1.0;stroke-dasharray:2.0,2.0;" x1="387.5" x2="613.5" y1="685.3262" y2="685.3262"/><polygon fill="#181818" points="300,695.3262,290,699.3262,300,703.3262,296,699.3262" style="stroke:#181818;stroke-width:1.0;"/><line style="stroke:#181818;stroke-width:1.0;stroke-dasharray:2.0,2.0;" x1="294" x2="381.5" y1="699.3262" y2="699.3262"/><polygon fill="#181818" points="38,709.3262,28,713.3262,38,717.3262,34,713.3262" style="stroke:#181818;stroke-width:1.0;"/><line style="stroke:#181818;stroke-width:1.0;stroke-dasharray:2.0,2.0;" x1="32" x2="288" y1="713.3262" y2="713.3262"/><!--SRC=[dLJ1Ri8m3BttAtmS1xOxGaWCROX3DqIrdKbR0v7Qf4fSnlv-JZhQ0YcQ5gbLc_Wzl-Su4Hbf0qjHOXIvDundaDHfhFEwm0cygsVSQOCh9KcAefbECeEe4gIvtMXD3wEeHJZun-hbHAXoD1FOu5vQGiCnKJT_7VKgLGw2oCYq9io1lYkqT-8N1WKXc5gHPCai4CeclM0YouuG90qIR1hSXRf2wyeJeSWENa04F4H1K1dSYHJGeQtKoY-uSSFeqgnzz4ANbLQeg4ko5fGTEDCPVHK8uv36uUX0fiPugzFRARXGvfyvW_wMWhyBf5WV9NfFlJhEQz9BL6_SI9tHMyITl5XOthiTSEYNsrGi_bhuJqR43X2eVRiMovDKlKsu1GrHDSKj7JvGs13Fi4ULH-u9sWYqwJIT-R99jPy-fJDui8XWiHB6dO9SYhqHvIXIcl_qaRizd3PXrBOLUcRS-ZEpRJgZc_nbjOzEgMCEgRsGUt7S-hT8_tRm3SHwVW00]--></g></svg>