<?xml version="1.0" encoding="us-ascii" standalone="no"?><svg xmlns="http://www.w3.org/2000/svg" xmlns:xlink="http://www.w3.org/1999/xlink" contentStyleType="text/css" height="1004px" preserveAspectRatio="none" style="width:1138px;height:1004px;background:#FFFFFF;" version="1.1" viewBox="0 0 1138 1004" width="1138px" zoomAndPan="magnify"><defs/><g><rect fill="none" height="109.873" style="stroke:#000000;stroke-width:1.5;" width="650.5" x="481.5" y="358.3672"/><rect fill="none" height="64.582" style="stroke:#000000;stroke-width:1.5;" width="318" x="814" y="614.8223"/><rect fill="none" height="64.582" style="stroke:#000000;stroke-width:1.5;" width="318" x="814" y="811.9863"/><line style="stroke:#181818;stroke-width:0.5;stroke-dasharray:5.0,5.0;" x1="27" x2="27" y1="83.6211" y2="229.4941"/><line style="stroke:#A80036;stroke-width:1.0;stroke-dasharray:1.0,4.0;" x1="27" x2="27" y1="229.4941" y2="257.4941"/><line style="stroke:#181818;stroke-width:0.5;stroke-dasharray:5.0,5.0;" x1="27" x2="27" y1="257.4941" y2="517.2402"/><line style="stroke:#A80036;stroke-width:1.0;stroke-dasharray:1.0,4.0;" x1="27" x2="27" y1="517.2402" y2="545.2402"/><line style="stroke:#181818;stroke-width:0.5;stroke-dasharray:5.0,5.0;" x1="27" x2="27" y1="545.2402" y2="714.4043"/><line style="stroke:#A80036;stroke-width:1.0;stroke-dasharray:1.0,4.0;" x1="27" x2="27" y1="714.4043" y2="742.4043"/><line style="stroke:#181818;stroke-width:0.5;stroke-dasharray:5.0,5.0;" x1="27" x2="27" y1="742.4043" y2="921.5684"/><line style="stroke:#181818;stroke-width:0.5;stroke-dasharray:5.0,5.0;" x1="288.5" x2="288.5" y1="83.6211" y2="229.4941"/><line style="stroke:#A80036;stroke-width:1.0;stroke-dasharray:1.0,4.0;" x1="288.5" x2="288.5" y1="229.4941" y2="257.4941"/><line style="stroke:#181818;stroke-width:0.5;stroke-dasharray:5.0,5.0;" x1="288.5" x2="288.5" y1="257.4941" y2="517.2402"/><line style="stroke:#A80036;stroke-width:1.0;stroke-dasharray:1.0,4.0;" x1="288.5" x2="288.5" y1="517.2402" y2="545.2402"/><line style="stroke:#181818;stroke-width:0.5;stroke-dasharray:5.0,5.0;" x1="288.5" x2="288.5" y1="545.2402" y2="714.4043"/><line style="stroke:#A80036;stroke-width:1.0;stroke-dasharray:1.0,4.0;" x1="288.5" x2="288.5" y1="714.4043" y2="742.4043"/><line style="stroke:#181818;stroke-width:0.5;stroke-dasharray:5.0,5.0;" x1="288.5" x2="288.5" y1="742.4043" y2="921.5684"/><line style="stroke:#181818;stroke-width:0.5;stroke-dasharray:5.0,5.0;" x1="382.5" x2="382.5" y1="83.6211" y2="229.4941"/><line style="stroke:#A80036;stroke-width:1.0;stroke-dasharray:1.0,4.0;" x1="382.5" x2="382.5" y1="229.4941" y2="257.4941"/><line style="stroke:#181818;stroke-width:0.5;stroke-dasharray:5.0,5.0;" x1="382.5" x2="382.5" y1="257.4941" y2="517.2402"/><line style="stroke:#A80036;stroke-width:1.0;stroke-dasharray:1.0,4.0;" x1="382.5" x2="382.5" y1="517.2402" y2="545.2402"/><line style="stroke:#181818;stroke-width:0.5;stroke-dasharray:5.0,5.0;" x1="382.5" x2="382.5" y1="545.2402" y2="714.4043"/><line style="stroke:#A80036;stroke-width:1.0;stroke-dasharray:1.0,4.0;" x1="382.5" x2="382.5" y1="714.4043" y2="742.4043"/><line style="stroke:#181818;stroke-width:0.5;stroke-dasharray:5.0,5.0;" x1="382.5" x2="382.5" y1="742.4043" y2="921.5684"/><line style="stroke:#181818;stroke-width:0.5;stroke-dasharray:5.0,5.0;" x1="568.5" x2="568.5" y1="83.6211" y2="229.4941"/><line style="stroke:#A80036;stroke-width:1.0;stroke-dasharray:1.0,4.0;" x1="568.5" x2="568.5" y1="229.4941" y2="257.4941"/><line style="stroke:#181818;stroke-width:0.5;stroke-dasharray:5.0,5.0;" x1="568.5" x2="568.5" y1="257.4941" y2="517.2402"/><line style="stroke:#A80036;stroke-width:1.0;stroke-dasharray:1.0,4.0;" x1="568.5" x2="568.5" y1="517.2402" y2="545.2402"/><line style="stroke:#181818;stroke-width:0.5;stroke-dasharray:5.0,5.0;" x1="568.5" x2="568.5" y1="545.2402" y2="714.4043"/><line style="stroke:#A80036;stroke-width:1.0;stroke-dasharray:1.0,4.0;" x1="568.5" x2="568.5" y1="714.4043" y2="742.4043"/><line style="stroke:#181818;stroke-width:0.5;stroke-dasharray:5.0,5.0;" x1="568.5" x2="568.5" y1="742.4043" y2="921.5684"/><line style="stroke:#181818;stroke-width:0.5;stroke-dasharray:5.0,5.0;" x1="695.5" x2="695.5" y1="83.6211" y2="229.4941"/><line style="stroke:#A80036;stroke-width:1.0;stroke-dasharray:1.0,4.0;" x1="695.5" x2="695.5" y1="229.4941" y2="257.4941"/><line style="stroke:#181818;stroke-width:0.5;stroke-dasharray:5.0,5.0;" x1="695.5" x2="695.5" y1="257.4941" y2="517.2402"/><line style="stroke:#A80036;stroke-width:1.0;stroke-dasharray:1.0,4.0;" x1="695.5" x2="695.5" y1="517.2402" y2="545.2402"/><line style="stroke:#181818;stroke-width:0.5;stroke-dasharray:5.0,5.0;" x1="695.5" x2="695.5" y1="545.2402" y2="714.4043"/><line style="stroke:#A80036;stroke-width:1.0;stroke-dasharray:1.0,4.0;" x1="695.5" x2="695.5" y1="714.4043" y2="742.4043"/><line style="stroke:#181818;stroke-width:0.5;stroke-dasharray:5.0,5.0;" x1="695.5" x2="695.5" y1="742.4043" y2="921.5684"/><line style="stroke:#181818;stroke-width:0.5;stroke-dasharray:5.0,5.0;" x1="912" x2="912" y1="83.6211" y2="229.4941"/><line style="stroke:#A80036;stroke-width:1.0;stroke-dasharray:1.0,4.0;" x1="912" x2="912" y1="229.4941" y2="257.4941"/><line style="stroke:#181818;stroke-width:0.5;stroke-dasharray:5.0,5.0;" x1="912" x2="912" y1="257.4941" y2="517.2402"/><line style="stroke:#A80036;stroke-width:1.0;stroke-dasharray:1.0,4.0;" x1="912" x2="912" y1="517.2402" y2="545.2402"/><line style="stroke:#181818;stroke-width:0.5;stroke-dasharray:5.0,5.0;" x1="912" x2="912" y1="545.2402" y2="714.4043"/><line style="stroke:#A80036;stroke-width:1.0;stroke-dasharray:1.0,4.0;" x1="912" x2="912" y1="714.4043" y2="742.4043"/><line style="stroke:#181818;stroke-width:0.5;stroke-dasharray:5.0,5.0;" x1="912" x2="912" y1="742.4043" y2="921.5684"/><line style="stroke:#181818;stroke-width:0.5;stroke-dasharray:5.0,5.0;" x1="1066" x2="1066" y1="83.6211" y2="229.4941"/><line style="stroke:#A80036;stroke-width:1.0;stroke-dasharray:1.0,4.0;" x1="1066" x2="1066" y1="229.4941" y2="257.4941"/><line style="stroke:#181818;stroke-width:0.5;stroke-dasharray:5.0,5.0;" x1="1066" x2="1066" y1="257.4941" y2="517.2402"/><line style="stroke:#A80036;stroke-width:1.0;stroke-dasharray:1.0,4.0;" x1="1066" x2="1066" y1="517.2402" y2="545.2402"/><line style="stroke:#181818;stroke-width:0.5;stroke-dasharray:5.0,5.0;" x1="1066" x2="1066" y1="545.2402" y2="714.4043"/><line style="stroke:#A80036;stroke-width:1.0;stroke-dasharray:1.0,4.0;" x1="1066" x2="1066" y1="714.4043" y2="742.4043"/><line style="stroke:#181818;stroke-width:0.5;stroke-dasharray:5.0,5.0;" x1="1066" x2="1066" y1="742.4043" y2="921.5684"/><text fill="#000000" font-family="sans-serif" font-size="14" lengthAdjust="spacing" textLength="38" x="5" y="80.1074">Game</text><ellipse cx="27" cy="13.5" fill="#E2E2F0" rx="8" ry="8" style="stroke:#181818;stroke-width:0.5;"/><path d="M27,21.5 L27,48.5 M14,29.5 L40,29.5 M27,48.5 L14,63.5 M27,48.5 L40,63.5 " fill="none" style="stroke:#181818;stroke-width:0.5;"/><text fill="#000000" font-family="sans-serif" font-size="14" lengthAdjust="spacing" textLength="38" x="5" y="935.6758">Game</text><ellipse cx="27" cy="947.6895" fill="#E2E2F0" rx="8" ry="8" style="stroke:#181818;stroke-width:0.5;"/><path d="M27,955.6895 L27,982.6895 M14,963.6895 L40,963.6895 M27,982.6895 L14,997.6895 M27,982.6895 L40,997.6895 " fill="none" style="stroke:#181818;stroke-width:0.5;"/><rect fill="#E2E2F0" height="32.6211" rx="2.5" ry="2.5" style="stroke:#181818;stroke-width:0.5;" width="85" x="246.5" y="50"/><text fill="#000000" font-family="sans-serif" font-size="14" lengthAdjust="spacing" textLength="71" x="253.5" y="72.1074">SubModule</text><rect fill="#E2E2F0" height="32.6211" rx="2.5" ry="2.5" style="stroke:#181818;stroke-width:0.5;" width="85" x="246.5" y="920.5684"/><text fill="#000000" font-family="sans-serif" font-size="14" lengthAdjust="spacing" textLength="71" x="253.5" y="942.6758">SubModule</text><rect fill="#E2E2F0" height="32.6211" rx="2.5" ry="2.5" style="stroke:#181818;stroke-width:0.5;" width="82" x="341.5" y="50"/><text fill="#000000" font-family="sans-serif" font-size="14" lengthAdjust="spacing" textLength="68" x="348.5" y="72.1074">UIExtender</text><rect fill="#E2E2F0" height="32.6211" rx="2.5" ry="2.5" style="stroke:#181818;stroke-width:0.5;" width="82" x="341.5" y="920.5684"/><text fill="#000000" font-family="sans-serif" font-size="14" lengthAdjust="spacing" textLength="68" x="348.5" y="942.6758">UIExtender</text><rect fill="#E2E2F0" height="32.6211" rx="2.5" ry="2.5" style="stroke:#181818;stroke-width:0.5;" width="154" x="491.5" y="50"/><text fill="#000000" font-family="sans-serif" font-size="14" lengthAdjust="spacing" textLength="140" x="498.5" y="72.1074">ViewModelComponent</text><rect fill="#E2E2F0" height="32.6211" rx="2.5" ry="2.5" style="stroke:#181818;stroke-width:0.5;" width="154" x="491.5" y="920.5684"/><text fill="#000000" font-family="sans-serif" font-size="14" lengthAdjust="spacing" textLength="140" x="498.5" y="942.6758">ViewModelComponent</text><rect fill="#E2E2F0" height="32.6211" rx="2.5" ry="2.5" style="stroke:#181818;stroke-width:0.5;" width="81" x="655.5" y="50"/><text fill="#000000" font-family="sans-serif" font-size="14" lengthAdjust="spacing" textLength="67" x="662.5" y="72.1074">ViewModel</text><rect fill="#E2E2F0" height="32.6211" rx="2.5" ry="2.5" style="stroke:#181818;stroke-width:0.5;" width="81" x="655.5" y="920.5684"/><text fill="#000000" font-family="sans-serif" font-size="14" lengthAdjust="spacing" textLength="67" x="662.5" y="942.6758">ViewModel</text><rect fill="#E2E2F0" height="32.6211" rx="2.5" ry="2.5" style="stroke:#181818;stroke-width:0.5;" width="176" x="824" y="50"/><text fill="#000000" font-family="sans-serif" font-size="14" lengthAdjust="spacing" textLength="162" x="831" y="72.1074">ViewModelWithMixinPatch</text><rect fill="#E2E2F0" height="32.6211" rx="2.5" ry="2.5" style="stroke:#181818;stroke-width:0.5;" width="176" x="824" y="920.5684"/><text fill="#000000" font-family="sans-serif" font-size="14" lengthAdjust="spacing" textLength="162" x="831" y="942.6758">ViewModelWithMixinPatch</text><rect fill="#E2E2F0" height="32.6211" rx="2.5" ry="2.5" style="stroke:#181818;stroke-width:0.5;" width="112" x="1010" y="50"/><text fill="#000000" font-family="sans-serif" font-size="14" lengthAdjust="spacing" textLength="98" x="1017" y="72.1074">ViewModelMixin</text><rect fill="#E2E2F0" height="32.6211" rx="2.5" ry="2.5" style="stroke:#181818;stroke-width:0.5;" width="112" x="1010" y="920.5684"/><text fill="#000000" font-family="sans-serif" font-size="14" lengthAdjust="spacing" textLength="98" x="1017" y="942.6758">ViewModelMixin</text><polygon fill="#181818" points="277,112.9121,287,116.9121,277,120.9121,281,116.9121" style="stroke:#181818;stroke-width:1.0;"/><line style="stroke:#181818;stroke-width:1.0;" x1="27" x2="283" y1="116.9121" y2="116.9121"/><text fill="#000000" font-family="sans-serif" font-size="13" lengthAdjust="spacing" textLength="238" x="34" y="111.6494">OnBeforeInitialModuleScreenSetAsRoot()</text><polygon fill="#181818" points="370.5,144.2031,380.5,148.2031,370.5,152.2031,374.5,148.2031" style="stroke:#181818;stroke-width:1.0;"/><line style="stroke:#181818;stroke-width:1.0;" x1="289" x2="376.5" y1="148.2031" y2="148.2031"/><text fill="#000000" font-family="sans-serif" font-size="13" lengthAdjust="spacing" textLength="56" x="296" y="142.9404">Register()</text><polygon fill="#181818" points="556.5,175.4941,566.5,179.4941,556.5,183.4941,560.5,179.4941" style="stroke:#181818;stroke-width:1.0;"/><line style="stroke:#181818;stroke-width:1.0;" x1="382.5" x2="562.5" y1="179.4941" y2="179.4941"/><text fill="#000000" font-family="sans-serif" font-size="13" lengthAdjust="spacing" textLength="162" x="389.5" y="174.2314">Register(Type[] mixinTypes)</text><polygon fill="#181818" points="393.5,189.4941,383.5,193.4941,393.5,197.4941,389.5,193.4941" style="stroke:#181818;stroke-width:1.0;"/><line style="stroke:#181818;stroke-width:1.0;stroke-dasharray:2.0,2.0;" x1="387.5" x2="567.5" y1="193.4941" y2="193.4941"/><polygon fill="#181818" points="300,203.4941,290,207.4941,300,211.4941,296,207.4941" style="stroke:#181818;stroke-width:1.0;"/><line style="stroke:#181818;stroke-width:1.0;stroke-dasharray:2.0,2.0;" x1="294" x2="381.5" y1="207.4941" y2="207.4941"/><polygon fill="#181818" points="38,217.4941,28,221.4941,38,225.4941,34,221.4941" style="stroke:#181818;stroke-width:1.0;"/><line style="stroke:#181818;stroke-width:1.0;stroke-dasharray:2.0,2.0;" x1="32" x2="288" y1="221.4941" y2="221.4941"/><polygon fill="#181818" points="684,276.7852,694,280.7852,684,284.7852,688,280.7852" style="stroke:#181818;stroke-width:1.0;"/><line style="stroke:#181818;stroke-width:1.0;" x1="27" x2="690" y1="280.7852" y2="280.7852"/><text fill="#000000" font-family="sans-serif" font-size="13" lengthAdjust="spacing" textLength="75" x="34" y="275.5225">Constructor()</text><polygon fill="#181818" points="900,308.0762,910,312.0762,900,316.0762,904,312.0762" style="stroke:#181818;stroke-width:1.0;"/><line style="stroke:#181818;stroke-width:1.0;" x1="696" x2="906" y1="312.0762" y2="312.0762"/><text fill="#000000" font-family="sans-serif" font-size="13" lengthAdjust="spacing" textLength="192" x="703" y="306.8135">Harmony intercepts Constructor()</text><polygon fill="#181818" points="579.5,339.3672,569.5,343.3672,579.5,347.3672,575.5,343.3672" style="stroke:#181818;stroke-width:1.0;"/><line style="stroke:#181818;stroke-width:1.0;" x1="573.5" x2="911" y1="343.3672" y2="343.3672"/><text fill="#000000" font-family="sans-serif" font-size="13" lengthAdjust="spacing" textLength="181" x="585.5" y="338.1045">InitializeMixinsForVMInstance()</text><path d="M481.5,358.3672 L554.5,358.3672 L554.5,367.6582 L544.5,377.6582 L481.5,377.6582 L481.5,358.3672 " fill="#EEEEEE" style="stroke:#000000;stroke-width:1.5;"/><rect fill="none" height="109.873" style="stroke:#000000;stroke-width:1.5;" width="650.5" x="481.5" y="358.3672"/><text fill="#000000" font-family="sans-serif" font-size="13" font-weight="bold" lengthAdjust="spacing" textLength="28" x="496.5" y="373.3955">loop</text><text fill="#000000" font-family="sans-serif" font-size="11" font-weight="bold" lengthAdjust="spacing" textLength="178" x="569.5" y="372.2373">[All registered ViewModelMixin]</text><polygon fill="#181818" points="1054,396.9492,1064,400.9492,1054,404.9492,1058,400.9492" style="stroke:#181818;stroke-width:1.0;"/><line style="stroke:#181818;stroke-width:1.0;" x1="568.5" x2="1060" y1="400.9492" y2="400.9492"/><text fill="#000000" font-family="sans-serif" font-size="13" lengthAdjust="spacing" textLength="75" x="575.5" y="395.6865">Constructor()</text><polygon fill="#181818" points="707,428.2402,697,432.2402,707,436.2402,703,432.2402" style="stroke:#181818;stroke-width:1.0;"/><line style="stroke:#181818;stroke-width:1.0;" x1="701" x2="1065" y1="432.2402" y2="432.2402"/><text fill="#000000" font-family="sans-serif" font-size="13" lengthAdjust="spacing" textLength="258" x="713" y="426.9775">Refresh() (if the original Constructor() calls it)</text><polygon fill="#181818" points="1054,442.2402,1064,446.2402,1054,450.2402,1058,446.2402" style="stroke:#181818;stroke-width:1.0;"/><line style="stroke:#181818;stroke-width:1.0;stroke-dasharray:2.0,2.0;" x1="696" x2="1060" y1="446.2402" y2="446.2402"/><polygon fill="#181818" points="579.5,456.2402,569.5,460.2402,579.5,464.2402,575.5,460.2402" style="stroke:#181818;stroke-width:1.0;"/><line style="stroke:#181818;stroke-width:1.0;stroke-dasharray:2.0,2.0;" x1="573.5" x2="1065" y1="460.2402" y2="460.2402"/><polygon fill="#181818" points="900,477.2402,910,481.2402,900,485.2402,904,481.2402" style="stroke:#181818;stroke-width:1.0;"/><line style="stroke:#181818;stroke-width:1.0;stroke-dasharray:2.0,2.0;" x1="568.5" x2="906" y1="481.2402" y2="481.2402"/><polygon fill="#181818" points="707,491.2402,697,495.2402,707,499.2402,703,495.2402" style="stroke:#181818;stroke-width:1.0;"/><line style="stroke:#181818;stroke-width:1.0;stroke-dasharray:2.0,2.0;" x1="701" x2="911" y1="495.2402" y2="495.2402"/><polygon fill="#181818" points="38,505.2402,28,509.2402,38,513.2402,34,509.2402" style="stroke:#181818;stroke-width:1.0;"/><line style="stroke:#181818;stroke-width:1.0;stroke-dasharray:2.0,2.0;" x1="32" x2="695" y1="509.2402" y2="509.2402"/><polygon fill="#181818" points="684,564.5313,694,568.5313,684,572.5313,688,568.5313" style="stroke:#181818;stroke-width:1.0;"/><line style="stroke:#181818;stroke-width:1.0;" x1="27" x2="690" y1="568.5313" y2="568.5313"/><text fill="#000000" font-family="sans-serif" font-size="13" lengthAdjust="spacing" textLength="52" x="34" y="563.2686">Refresh()</text><polygon fill="#181818" points="900,595.8223,910,599.8223,900,603.8223,904,599.8223" style="stroke:#181818;stroke-width:1.0;"/><line style="stroke:#181818;stroke-width:1.0;" x1="696" x2="906" y1="599.8223" y2="599.8223"/><text fill="#000000" font-family="sans-serif" font-size="13" lengthAdjust="spacing" textLength="169" x="703" y="594.5596">Harmony intercepts Refresh()</text><path d="M814,614.8223 L887,614.8223 L887,624.1133 L877,634.1133 L814,634.1133 L814,614.8223 " fill="#EEEEEE" style="stroke:#000000;stroke-width:1.5;"/><rect fill="none" height="64.582" style="stroke:#000000;stroke-width:1.5;" width="318" x="814" y="614.8223"/><text fill="#000000" font-family="sans-serif" font-size="13" font-weight="bold" lengthAdjust="spacing" textLength="28" x="829" y="629.8506">loop</text><text fill="#000000" font-family="sans-serif" font-size="11" font-weight="bold" lengthAdjust="spacing" textLength="178" x="902" y="628.6924">[All registered ViewModelMixin]</text><polygon fill="#181818" points="1054,653.4043,1064,657.4043,1054,661.4043,1058,657.4043" style="stroke:#181818;stroke-width:1.0;"/><line style="stroke:#181818;stroke-width:1.0;" x1="912" x2="1060" y1="657.4043" y2="657.4043"/><text fill="#000000" font-family="sans-serif" font-size="13" lengthAdjust="spacing" textLength="52" x="919" y="652.1416">Refresh()</text><polygon fill="#181818" points="923,667.4043,913,671.4043,923,675.4043,919,671.4043" style="stroke:#181818;stroke-width:1.0;"/><line style="stroke:#181818;stroke-width:1.0;stroke-dasharray:2.0,2.0;" x1="917" x2="1065" y1="671.4043" y2="671.4043"/><polygon fill="#181818" points="707,688.4043,697,692.4043,707,696.4043,703,692.4043" style="stroke:#181818;stroke-width:1.0;"/><line style="stroke:#181818;stroke-width:1.0;stroke-dasharray:2.0,2.0;" x1="701" x2="911" y1="692.4043" y2="692.4043"/><polygon fill="#181818" points="38,702.4043,28,706.4043,38,710.4043,34,706.4043" style="stroke:#181818;stroke-width:1.0;"/><line style="stroke:#181818;stroke-width:1.0;stroke-dasharray:2.0,2.0;" x1="32" x2="695" y1="706.4043" y2="706.4043"/><polygon fill="#181818" points="684,761.6953,694,765.6953,684,769.6953,688,765.6953" style="stroke:#181818;stroke-width:1.0;"/><line style="stroke:#181818;stroke-width:1.0;" x1="27" x2="690" y1="765.6953" y2="765.6953"/><text fill="#000000" font-family="sans-serif" font-size="13" lengthAdjust="spacing" textLength="70" x="34" y="760.4326">OnFinalize()</text><polygon fill="#181818" points="900,792.9863,910,796.9863,900,800.9863,904,796.9863" style="stroke:#181818;stroke-width:1.0;"/><line style="stroke:#181818;stroke-width:1.0;" x1="696" x2="906" y1="796.9863" y2="796.9863"/><text fill="#000000" font-family="sans-serif" font-size="13" lengthAdjust="spacing" textLength="187" x="703" y="791.7236">Harmony intercepts OnFinalize()</text><path d="M814,811.9863 L887,811.9863 L887,821.2773 L877,831.2773 L814,831.2773 L814,811.9863 " fill="#EEEEEE" style="stroke:#000000;stroke-width:1.5;"/><rect fill="none" height="64.582" style="stroke:#000000;stroke-width:1.5;" width="318" x="814" y="811.9863"/><text fill="#000000" font-family="sans-serif" font-size="13" font-weight="bold" lengthAdjust="spacing" textLength="28" x="829" y="827.0146">loop</text><text fill="#000000" font-family="sans-serif" font-size="11" font-weight="bold" lengthAdjust="spacing" textLength="178" x="902" y="825.8564">[All registered ViewModelMixin]</text><polygon fill="#181818" points="1054,850.5684,1064,854.5684,1054,858.5684,1058,854.5684" style="stroke:#181818;stroke-width:1.0;"/><line style="stroke:#181818;stroke-width:1.0;" x1="912" x2="1060" y1="854.5684" y2="854.5684"/><text fill="#000000" font-family="sans-serif" font-size="13" lengthAdjust="spacing" textLength="70" x="919" y="849.3057">OnFinalize()</text><polygon fill="#181818" points="923,864.5684,913,868.5684,923,872.5684,919,868.5684" style="stroke:#181818;stroke-width:1.0;"/><line style="stroke:#181818;stroke-width:1.0;stroke-dasharray:2.0,2.0;" x1="917" x2="1065" y1="868.5684" y2="868.5684"/><polygon fill="#181818" points="707,885.5684,697,889.5684,707,893.5684,703,889.5684" style="stroke:#181818;stroke-width:1.0;"/><line style="stroke:#181818;stroke-width:1.0;stroke-dasharray:2.0,2.0;" x1="701" x2="911" y1="889.5684" y2="889.5684"/><polygon fill="#181818" points="38,899.5684,28,903.5684,38,907.5684,34,903.5684" style="stroke:#181818;stroke-width:1.0;"/><line style="stroke:#181818;stroke-width:1.0;stroke-dasharray:2.0,2.0;" x1="32" x2="695" y1="903.5684" y2="903.5684"/><!--SRC=[lPAnRi8m48PtFyMDOI0Fa069ej8o82fewL1rSCE5dEJOaMrKwDFN3X69KqBL5ZM35Ld___lkk-EfLHhkU86C-HE68rZjtkPginEOm4BUOAOqpYHPuk9ulKereboX7PkbKZOQi9F3svzcjtkBSeCwWILkoLZKJjDSUz6QyDrPK4nKKIg9qhR4ZuSINrwXe3r9_sy6xAiUXi5RGNwxYNPnxlxOQXp7JR-dx0GcIXghTnvAr7eqK3sJpUU-j0Tkqpo1UwuB9Gz0qjMUOcbDNqpexCDGiwOFhBHcglHwFdE1NAReueHI9Oo505tpmasJKraOkEySiL57s6quy5MA3fybPXfD7WqWeWniZg0qRKbo4IP1oeKmGBQJMOtWKh7resVHC3VTlaNeOTpFlkrXONsNL-I4uFVhqKJyT9ONDgWUQ9Fz7TSEgG3krMWjvDHlXrlclm0BKgxFB8Z_JsoV]--></g></svg>